<svg xmlns="http://www.w3.org/2000/svg" xmlns:xlink="http://www.w3.org/1999/xlink" preserveAspectRatio="xMidYMid" width="66.938" height="71" viewBox="0 0 66.938 71">
  <defs>
    <style>
      .cls-1 {
        fill: #fff;
        stroke: #bdbdbd;
        stroke-width: 1px;
        fill-rule: evenodd;
      }
    </style>
  </defs>
  <path d="M62.369,56.730 L39.538,70.109 C37.971,71.029 36.220,71.488 34.469,71.488 C32.719,71.488 30.970,71.029 29.401,70.109 L6.572,56.730 C3.435,54.893 1.503,51.497 1.503,47.820 L1.503,25.180 C1.503,21.503 3.435,18.107 6.572,16.270 L29.401,2.891 C30.970,1.972 32.719,1.512 34.469,1.512 C36.220,1.512 37.971,1.972 39.538,2.891 L62.369,16.270 C65.504,18.107 67.436,21.503 67.436,25.180 L67.436,47.820 C67.436,51.497 65.504,54.893 62.369,56.730 Z" class="cls-1"/>
</svg>
