<svg xmlns="http://www.w3.org/2000/svg" xmlns:xlink="http://www.w3.org/1999/xlink" preserveAspectRatio="xMidYMid" width="23.969" height="20" viewBox="0 0 23.969 20">
  <defs>
    <style>
      .cls-1 {
        fill: #000;
        fill-rule: evenodd;
      }
    </style>
  </defs>
  <path d="M23.728,8.644 L13.140,0.147 C12.943,-0.011 12.668,-0.045 12.437,0.061 C12.206,0.166 12.059,0.396 12.059,0.644 L12.059,5.122 C6.919,5.304 3.386,7.069 1.549,10.375 C-0.033,13.226 -0.019,16.603 -0.004,18.838 C-0.004,19.019 -0.004,19.192 -0.004,19.354 C-0.004,19.647 0.198,19.904 0.493,19.981 C0.547,19.995 0.606,20.000 0.659,20.000 C0.895,20.000 1.117,19.881 1.234,19.675 C4.821,13.518 7.774,13.221 12.054,13.207 L12.054,17.671 C12.054,17.919 12.202,18.149 12.437,18.254 C12.673,18.359 12.943,18.325 13.144,18.168 L23.728,9.643 C23.881,9.519 23.969,9.337 23.969,9.146 C23.969,8.954 23.881,8.767 23.728,8.644 ZM13.385,16.298 L13.385,12.561 C13.385,12.389 13.317,12.226 13.189,12.107 C13.066,11.987 12.894,11.915 12.722,11.915 C10.049,11.915 8.000,11.987 6.010,12.892 C4.291,13.671 2.802,14.996 1.332,17.077 C1.392,15.178 1.647,12.911 2.713,10.992 C4.403,7.949 7.676,6.443 12.722,6.400 C13.085,6.395 13.381,6.107 13.381,5.754 L13.381,2.013 L22.259,9.146 L13.385,16.298 Z" class="cls-1"/>
</svg>
